<?xml version="1.0" standalone="yes"?><svg xmlns="http://www.w3.org/2000/svg" version="1.1" width="205" height="205" viewBox="0 0 205 205" shape-rendering="crispEdges"><rect x="0" y="0" width="205" height="205" fill="#FFFFFF"/><path fill="#000000" d="M20 20h5v5H20V20M25 20h5v5H25V20M30 20h5v5H30V20M35 20h5v5H35V20M40 20h5v5H40V20M45 20h5v5H45V20M50 20h5v5H50V20M60 20h5v5H60V20M85 20h5v5H85V20M105 20h5v5H105V20M125 20h5v5H125V20M130 20h5v5H130V20M150 20h5v5H150V20M155 20h5v5H155V20M160 20h5v5H160V20M165 20h5v5H165V20M170 20h5v5H170V20M175 20h5v5H175V20M180 20h5v5H180V20M20 25h5v5H20V25M50 25h5v5H50V25M70 25h5v5H70V25M75 25h5v5H75V25M100 25h5v5H100V25M120 25h5v5H120V25M140 25h5v5H140V25M150 25h5v5H150V25M180 25h5v5H180V25M20 30h5v5H20V30M30 30h5v5H30V30M35 30h5v5H35V30M40 30h5v5H40V30M50 30h5v5H50V30M60 30h5v5H60V30M70 30h5v5H70V30M75 30h5v5H75V30M85 30h5v5H85V30M95 30h5v5H95V30M105 30h5v5H105V30M115 30h5v5H115V30M120 30h5v5H120V30M125 30h5v5H125V30M135 30h5v5H135V30M150 30h5v5H150V30M160 30h5v5H160V30M165 30h5v5H165V30M170 30h5v5H170V30M180 30h5v5H180V30M20 35h5v5H20V35M30 35h5v5H30V35M35 35h5v5H35V35M40 35h5v5H40V35M50 35h5v5H50V35M65 35h5v5H65V35M80 35h5v5H80V35M150 35h5v5H150V35M160 35h5v5H160V35M165 35h5v5H165V35M170 35h5v5H170V35M180 35h5v5H180V35M20 40h5v5H20V40M30 40h5v5H30V40M35 40h5v5H35V40M40 40h5v5H40V40M50 40h5v5H50V40M85 40h5v5H85V40M95 40h5v5H95V40M105 40h5v5H105V40M115 40h5v5H115V40M125 40h5v5H125V40M135 40h5v5H135V40M150 40h5v5H150V40M160 40h5v5H160V40M165 40h5v5H165V40M170 40h5v5H170V40M180 40h5v5H180V40M20 45h5v5H20V45M50 45h5v5H50V45M60 45h5v5H60V45M90 45h5v5H90V45M95 45h5v5H95V45M110 45h5v5H110V45M115 45h5v5H115V45M125 45h5v5H125V45M135 45h5v5H135V45M150 45h5v5H150V45M180 45h5v5H180V45M20 50h5v5H20V50M25 50h5v5H25V50M30 50h5v5H30V50M35 50h5v5H35V50M40 50h5v5H40V50M45 50h5v5H45V50M50 50h5v5H50V50M60 50h5v5H60V50M70 50h5v5H70V50M80 50h5v5H80V50M90 50h5v5H90V50M100 50h5v5H100V50M110 50h5v5H110V50M120 50h5v5H120V50M130 50h5v5H130V50M140 50h5v5H140V50M150 50h5v5H150V50M155 50h5v5H155V50M160 50h5v5H160V50M165 50h5v5H165V50M170 50h5v5H170V50M175 50h5v5H175V50M180 50h5v5H180V50M70 55h5v5H70V55M75 55h5v5H75V55M95 55h5v5H95V55M100 55h5v5H100V55M110 55h5v5H110V55M115 55h5v5H115V55M120 55h5v5H120V55M135 55h5v5H135V55M140 55h5v5H140V55M20 60h5v5H20V60M30 60h5v5H30V60M50 60h5v5H50V60M55 60h5v5H55V60M65 60h5v5H65V60M70 60h5v5H70V60M80 60h5v5H80V60M90 60h5v5H90V60M120 60h5v5H120V60M130 60h5v5H130V60M155 60h5v5H155V60M170 60h5v5H170V60M180 60h5v5H180V60M25 65h5v5H25V65M30 65h5v5H30V65M40 65h5v5H40V65M55 65h5v5H55V65M60 65h5v5H60V65M75 65h5v5H75V65M80 65h5v5H80V65M85 65h5v5H85V65M95 65h5v5H95V65M100 65h5v5H100V65M105 65h5v5H105V65M115 65h5v5H115V65M120 65h5v5H120V65M125 65h5v5H125V65M135 65h5v5H135V65M140 65h5v5H140V65M150 65h5v5H150V65M165 65h5v5H165V65M180 65h5v5H180V65M20 70h5v5H20V70M35 70h5v5H35V70M50 70h5v5H50V70M55 70h5v5H55V70M70 70h5v5H70V70M80 70h5v5H80V70M95 70h5v5H95V70M115 70h5v5H115V70M120 70h5v5H120V70M135 70h5v5H135V70M140 70h5v5H140V70M165 70h5v5H165V70M170 70h5v5H170V70M175 70h5v5H175V70M180 70h5v5H180V70M20 75h5v5H20V75M60 75h5v5H60V75M70 75h5v5H70V75M85 75h5v5H85V75M95 75h5v5H95V75M100 75h5v5H100V75M105 75h5v5H105V75M120 75h5v5H120V75M125 75h5v5H125V75M145 75h5v5H145V75M155 75h5v5H155V75M160 75h5v5H160V75M165 75h5v5H165V75M175 75h5v5H175V75M20 80h5v5H20V80M25 80h5v5H25V80M35 80h5v5H35V80M40 80h5v5H40V80M50 80h5v5H50V80M65 80h5v5H65V80M75 80h5v5H75V80M80 80h5v5H80V80M85 80h5v5H85V80M105 80h5v5H105V80M125 80h5v5H125V80M140 80h5v5H140V80M150 80h5v5H150V80M155 80h5v5H155V80M175 80h5v5H175V80M20 85h5v5H20V85M30 85h5v5H30V85M35 85h5v5H35V85M40 85h5v5H40V85M45 85h5v5H45V85M65 85h5v5H65V85M70 85h5v5H70V85M80 85h5v5H80V85M105 85h5v5H105V85M125 85h5v5H125V85M150 85h5v5H150V85M165 85h5v5H165V85M170 85h5v5H170V85M175 85h5v5H175V85M180 85h5v5H180V85M20 90h5v5H20V90M25 90h5v5H25V90M40 90h5v5H40V90M50 90h5v5H50V90M60 90h5v5H60V90M65 90h5v5H65V90M70 90h5v5H70V90M75 90h5v5H75V90M80 90h5v5H80V90M85 90h5v5H85V90M90 90h5v5H90V90M95 90h5v5H95V90M115 90h5v5H115V90M135 90h5v5H135V90M140 90h5v5H140V90M155 90h5v5H155V90M160 90h5v5H160V90M170 90h5v5H170V90M180 90h5v5H180V90M25 95h5v5H25V95M40 95h5v5H40V95M45 95h5v5H45V95M55 95h5v5H55V95M65 95h5v5H65V95M85 95h5v5H85V95M90 95h5v5H90V95M145 95h5v5H145V95M150 95h5v5H150V95M155 95h5v5H155V95M165 95h5v5H165V95M20 100h5v5H20V100M30 100h5v5H30V100M40 100h5v5H40V100M50 100h5v5H50V100M70 100h5v5H70V100M75 100h5v5H75V100M90 100h5v5H90V100M95 100h5v5H95V100M100 100h5v5H100V100M115 100h5v5H115V100M120 100h5v5H120V100M140 100h5v5H140V100M150 100h5v5H150V100M155 100h5v5H155V100M175 100h5v5H175V100M20 105h5v5H20V105M25 105h5v5H25V105M35 105h5v5H35V105M60 105h5v5H60V105M65 105h5v5H65V105M75 105h5v5H75V105M80 105h5v5H80V105M85 105h5v5H85V105M95 105h5v5H95V105M100 105h5v5H100V105M115 105h5v5H115V105M120 105h5v5H120V105M135 105h5v5H135V105M140 105h5v5H140V105M150 105h5v5H150V105M165 105h5v5H165V105M180 105h5v5H180V105M25 110h5v5H25V110M35 110h5v5H35V110M50 110h5v5H50V110M60 110h5v5H60V110M65 110h5v5H65V110M70 110h5v5H70V110M80 110h5v5H80V110M90 110h5v5H90V110M95 110h5v5H95V110M105 110h5v5H105V110M110 110h5v5H110V110M115 110h5v5H115V110M125 110h5v5H125V110M130 110h5v5H130V110M135 110h5v5H135V110M140 110h5v5H140V110M150 110h5v5H150V110M155 110h5v5H155V110M165 110h5v5H165V110M170 110h5v5H170V110M180 110h5v5H180V110M30 115h5v5H30V115M40 115h5v5H40V115M45 115h5v5H45V115M70 115h5v5H70V115M80 115h5v5H80V115M95 115h5v5H95V115M110 115h5v5H110V115M115 115h5v5H115V115M120 115h5v5H120V115M130 115h5v5H130V115M140 115h5v5H140V115M160 115h5v5H160V115M165 115h5v5H165V115M175 115h5v5H175V115M20 120h5v5H20V120M25 120h5v5H25V120M30 120h5v5H30V120M35 120h5v5H35V120M50 120h5v5H50V120M55 120h5v5H55V120M60 120h5v5H60V120M70 120h5v5H70V120M75 120h5v5H75V120M80 120h5v5H80V120M85 120h5v5H85V120M90 120h5v5H90V120M95 120h5v5H95V120M100 120h5v5H100V120M105 120h5v5H105V120M110 120h5v5H110V120M120 120h5v5H120V120M125 120h5v5H125V120M130 120h5v5H130V120M135 120h5v5H135V120M150 120h5v5H150V120M175 120h5v5H175V120M180 120h5v5H180V120M30 125h5v5H30V125M35 125h5v5H35V125M45 125h5v5H45V125M70 125h5v5H70V125M75 125h5v5H75V125M80 125h5v5H80V125M90 125h5v5H90V125M100 125h5v5H100V125M110 125h5v5H110V125M120 125h5v5H120V125M130 125h5v5H130V125M135 125h5v5H135V125M140 125h5v5H140V125M150 125h5v5H150V125M155 125h5v5H155V125M180 125h5v5H180V125M20 130h5v5H20V130M25 130h5v5H25V130M35 130h5v5H35V130M40 130h5v5H40V130M50 130h5v5H50V130M60 130h5v5H60V130M65 130h5v5H65V130M70 130h5v5H70V130M80 130h5v5H80V130M90 130h5v5H90V130M100 130h5v5H100V130M110 130h5v5H110V130M120 130h5v5H120V130M130 130h5v5H130V130M135 130h5v5H135V130M150 130h5v5H150V130M155 130h5v5H155V130M165 130h5v5H165V130M170 130h5v5H170V130M180 130h5v5H180V130M30 135h5v5H30V135M45 135h5v5H45V135M55 135h5v5H55V135M60 135h5v5H60V135M65 135h5v5H65V135M70 135h5v5H70V135M75 135h5v5H75V135M85 135h5v5H85V135M90 135h5v5H90V135M95 135h5v5H95V135M100 135h5v5H100V135M110 135h5v5H110V135M115 135h5v5H115V135M120 135h5v5H120V135M130 135h5v5H130V135M140 135h5v5H140V135M145 135h5v5H145V135M150 135h5v5H150V135M165 135h5v5H165V135M175 135h5v5H175V135M180 135h5v5H180V135M20 140h5v5H20V140M25 140h5v5H25V140M30 140h5v5H30V140M40 140h5v5H40V140M50 140h5v5H50V140M70 140h5v5H70V140M85 140h5v5H85V140M90 140h5v5H90V140M100 140h5v5H100V140M120 140h5v5H120V140M135 140h5v5H135V140M140 140h5v5H140V140M145 140h5v5H145V140M150 140h5v5H150V140M155 140h5v5H155V140M160 140h5v5H160V140M165 140h5v5H165V140M175 140h5v5H175V140M60 145h5v5H60V145M65 145h5v5H65V145M80 145h5v5H80V145M90 145h5v5H90V145M95 145h5v5H95V145M100 145h5v5H100V145M105 145h5v5H105V145M115 145h5v5H115V145M125 145h5v5H125V145M135 145h5v5H135V145M140 145h5v5H140V145M160 145h5v5H160V145M180 145h5v5H180V145M20 150h5v5H20V150M25 150h5v5H25V150M30 150h5v5H30V150M35 150h5v5H35V150M40 150h5v5H40V150M45 150h5v5H45V150M50 150h5v5H50V150M60 150h5v5H60V150M65 150h5v5H65V150M70 150h5v5H70V150M95 150h5v5H95V150M115 150h5v5H115V150M140 150h5v5H140V150M150 150h5v5H150V150M160 150h5v5H160V150M165 150h5v5H165V150M170 150h5v5H170V150M180 150h5v5H180V150M20 155h5v5H20V155M50 155h5v5H50V155M70 155h5v5H70V155M75 155h5v5H75V155M80 155h5v5H80V155M90 155h5v5H90V155M95 155h5v5H95V155M105 155h5v5H105V155M120 155h5v5H120V155M125 155h5v5H125V155M135 155h5v5H135V155M140 155h5v5H140V155M160 155h5v5H160V155M165 155h5v5H165V155M175 155h5v5H175V155M180 155h5v5H180V155M20 160h5v5H20V160M30 160h5v5H30V160M35 160h5v5H35V160M40 160h5v5H40V160M50 160h5v5H50V160M65 160h5v5H65V160M70 160h5v5H70V160M85 160h5v5H85V160M90 160h5v5H90V160M95 160h5v5H95V160M105 160h5v5H105V160M125 160h5v5H125V160M135 160h5v5H135V160M140 160h5v5H140V160M145 160h5v5H145V160M150 160h5v5H150V160M155 160h5v5H155V160M160 160h5v5H160V160M20 165h5v5H20V165M30 165h5v5H30V165M35 165h5v5H35V165M40 165h5v5H40V165M50 165h5v5H50V165M70 165h5v5H70V165M75 165h5v5H75V165M105 165h5v5H105V165M125 165h5v5H125V165M135 165h5v5H135V165M145 165h5v5H145V165M155 165h5v5H155V165M160 165h5v5H160V165M180 165h5v5H180V165M20 170h5v5H20V170M30 170h5v5H30V170M35 170h5v5H35V170M40 170h5v5H40V170M50 170h5v5H50V170M60 170h5v5H60V170M70 170h5v5H70V170M75 170h5v5H75V170M85 170h5v5H85V170M90 170h5v5H90V170M95 170h5v5H95V170M105 170h5v5H105V170M110 170h5v5H110V170M115 170h5v5H115V170M135 170h5v5H135V170M145 170h5v5H145V170M155 170h5v5H155V170M160 170h5v5H160V170M170 170h5v5H170V170M175 170h5v5H175V170M180 170h5v5H180V170M20 175h5v5H20V175M50 175h5v5H50V175M75 175h5v5H75V175M80 175h5v5H80V175M90 175h5v5H90V175M130 175h5v5H130V175M135 175h5v5H135V175M140 175h5v5H140V175M145 175h5v5H145V175M155 175h5v5H155V175M160 175h5v5H160V175M165 175h5v5H165V175M20 180h5v5H20V180M25 180h5v5H25V180M30 180h5v5H30V180M35 180h5v5H35V180M40 180h5v5H40V180M45 180h5v5H45V180M50 180h5v5H50V180M60 180h5v5H60V180M65 180h5v5H65V180M70 180h5v5H70V180M85 180h5v5H85V180M95 180h5v5H95V180M115 180h5v5H115V180M120 180h5v5H120V180M140 180h5v5H140V180M150 180h5v5H150V180M155 180h5v5H155V180M160 180h5v5H160V180M180 180h5v5H180V180"/></svg>